<?xml version="1.0" encoding="utf-8"?>
<!-- Generator: Adobe Illustrator 15.1.0, SVG Export Plug-In . SVG Version: 6.00 Build 0)  -->
<!DOCTYPE svg PUBLIC "-//W3C//DTD SVG 1.1//EN" "http://www.w3.org/Graphics/SVG/1.1/DTD/svg11.dtd">
<svg version="1.1" id="Layer_1" xmlns="http://www.w3.org/2000/svg" xmlns:xlink="http://www.w3.org/1999/xlink" x="0px" y="0px"
	 width="230px" height="50px" viewBox="0 0 230 50" enable-background="new 0 0 230 50" xml:space="preserve">
<path fill-rule="evenodd" clip-rule="evenodd" fill="#4B7896" d="M28.858,4.84c2.542,0,4.617,2.074,4.617,4.617
	c0,1.62-0.842,3.457-2.11,4.578c1.796,0.94,3.035,2.833,3.035,4.837V30.04c0,0.885-0.443,1.715-1.126,1.714
	c-0.707-0.003-1.187-0.842-1.237-1.723l-0.306-5.273c-0.052-0.884-0.725-1.611-1.611-1.611h-4.295c-2.631,0-2.613-0.649-3.476-2.102
	c-0.264-0.445-0.578-0.537-1.048-0.537h-7.244c-0.475,0-0.8,0.08-1.065,0.537c-0.869,1.495-0.872,2.102-3.521,2.102H5.268
	c-0.885,0-1.56,0.727-1.61,1.611l-0.307,5.3c-0.05,0.869-0.572,1.7-1.281,1.696C1.375,31.748,0.88,30.923,0.88,30.04V18.873
	c0-2.087,1.343-4.054,3.261-4.95c-1.199-1.128-1.988-2.898-1.988-4.465c0-2.543,2.074-4.617,4.617-4.617
	c2.543,0,4.618,2.074,4.618,4.617c0,1.589-0.81,3.387-2.038,4.513c1.293,0.635,2.314,1.76,2.818,3.074
	c0.525-1.37,1.612-2.534,2.984-3.152c-1.182-1.128-1.956-2.881-1.956-4.435c0-2.543,2.074-4.617,4.617-4.617
	s4.617,2.074,4.617,4.617c0,1.604-0.826,3.421-2.073,4.544c1.263,0.641,2.258,1.75,2.754,3.042c0.535-1.393,1.648-2.573,3.053-3.183
	c-1.164-1.13-1.924-2.865-1.924-4.404C24.241,6.915,26.315,4.84,28.858,4.84z"/>
<path fill-rule="evenodd" clip-rule="evenodd" fill="#4B7896" d="M200.572,33.325v-1.801c2.062,0,3.351-1.482,3.351-3.544
	c0-2.062-1.289-3.543-3.351-3.543v-1.798c0.078-0.004,0.158-0.006,0.236-0.006c3.157,0,5.176,2.34,5.176,5.348
	c0,3.05-2.041,5.351-5.176,5.351C200.729,33.331,200.65,33.329,200.572,33.325L200.572,33.325z M208.195,33.071h1.933V27.83
	c0-2.363,1.225-3.393,2.835-3.393c1.225,0,2.319,0.708,2.319,2.62v6.015h1.934V26.52c0-2.706-1.718-3.887-3.693-3.887
	c-1.569,0-2.856,0.751-3.351,1.825h-0.044v-7.624h-1.933V33.071L208.195,33.071z M222.93,33.138l-0.625,1.611
	c-0.386,1.01-0.752,1.674-1.975,1.674c-0.387,0-0.795-0.085-1.16-0.234l-0.236,1.781c0.537,0.195,1.139,0.258,1.718,0.258
	c2.127,0,2.793-1.203,3.48-2.963l4.831-12.374h-2.082l-2.879,7.945h-0.043l-3.027-7.945h-2.234L222.93,33.138z M200.572,22.639
	v1.798c-2.063,0-3.351,1.481-3.351,3.543c0,2.062,1.288,3.544,3.351,3.544v1.801c-1.373-0.067-2.658-0.721-3.307-1.715h-0.044v7.52
	h-1.934V22.891h1.934v1.46h0.044C197.974,23.318,199.273,22.706,200.572,22.639L200.572,22.639z M188.342,33.258v-1.491
	c1.877-0.166,2.544-1.652,2.544-2.948v-0.644h-1.03c-0.493,0-1.015,0.022-1.514,0.089V26.8c0.364-0.03,0.74-0.043,1.127-0.043h1.417
	v-0.431c0-1.052-0.772-2.147-2.426-2.147c-0.04,0-0.079,0-0.118,0.001v-1.547c0.032,0,0.064-0.001,0.096-0.001
	c3.007,0,4.252,1.632,4.252,3.393v5.198c0,0.708,0.022,1.31,0.087,1.848h-1.718c-0.044-0.517-0.064-1.033-0.064-1.547h-0.043
	C190.279,32.55,189.423,33.076,188.342,33.258z M188.342,22.634v1.547c-1.402,0.032-2.092,0.635-2.781,1.158l-1.16-1.202
	C185.449,23.149,186.951,22.656,188.342,22.634L188.342,22.634z M188.342,26.8v1.464c-1.354,0.179-2.545,0.672-2.545,1.865
	c0,1.158,0.859,1.653,2.189,1.653c0.123,0,0.241-0.006,0.355-0.016v1.491c-0.302,0.05-0.619,0.073-0.957,0.073
	c-1.889,0-3.521-1.076-3.521-3.052C183.863,27.985,185.788,27.008,188.342,26.8L188.342,26.8z M168.637,38.223v-1.808
	c2.615-0.13,3.352-1.861,3.352-3.518v-1.503h-0.066c-0.688,1.156-1.97,1.74-3.285,1.802v-1.802c2.063,0,3.352-1.353,3.352-3.414
	c0-2.062-1.289-3.543-3.352-3.543v-1.798c1.299,0.067,2.6,0.68,3.309,1.712h0.043v-1.46h1.932v10.094
	C173.92,35.973,171.812,38.104,168.637,38.223L168.637,38.223z M176.625,33.071h1.935v-5.112c0-2.234,1.03-3.265,2.92-3.265
	c0.3,0,0.624,0.065,0.945,0.151l0.086-2.083c-0.257-0.086-0.558-0.129-0.858-0.129c-1.268,0-2.557,0.751-3.05,1.825h-0.043v-1.567
	h-1.935V33.071z M168.637,22.639v1.798c-2.062,0-3.35,1.481-3.35,3.543c0,2.062,1.288,3.414,3.35,3.414v1.802
	c-0.078,0.004-0.156,0.007-0.235,0.007c-2.986,0-5.197-2.259-5.177-5.223c0-3.007,2.02-5.348,5.177-5.348
	C168.48,22.633,168.559,22.634,168.637,22.639L168.637,22.639z M168.637,36.415v1.808c-0.092,0.004-0.185,0.005-0.278,0.005
	c-1.934,0-3.544-0.494-4.983-1.824l1.311-1.633c1.01,1.074,2.147,1.652,3.63,1.652C168.426,36.423,168.533,36.421,168.637,36.415
	L168.637,36.415z M156.095,33.331v-1.807c2.063,0,3.351-1.482,3.351-3.544c0-2.062-1.288-3.543-3.351-3.543v-1.804
	c3.028,0,5.412,2.384,5.412,5.348S159.123,33.331,156.095,33.331z M156.095,22.633v1.804c-2.062,0-3.35,1.481-3.35,3.543
	c0,2.062,1.288,3.544,3.35,3.544v1.807c-3.028,0-5.411-2.387-5.411-5.351S153.066,22.633,156.095,22.633L156.095,22.633z
	 M135.822,33.331v-1.807c2.062,0,3.351-1.482,3.351-3.544c0-2.062-1.289-3.543-3.351-3.543v-1.804c3.027,0,5.411,2.384,5.411,5.348
	S138.85,33.331,135.822,33.331L135.822,33.331z M148.901,22.891h-2.771v-2.856h-1.933v2.856h-2.238v1.675h2.238v5.305
	c0,1.631,0.042,3.46,3.028,3.46c0.386,0,1.287-0.086,1.738-0.347v-1.761c-0.386,0.236-0.923,0.301-1.374,0.301
	c-1.46,0-1.46-1.203-1.46-2.342v-4.617h2.771V22.891z M135.822,22.633v1.804c-2.063,0-3.35,1.481-3.35,3.543
	c0,2.062,1.287,3.544,3.35,3.544v1.807c-3.028,0-5.412-2.387-5.412-5.351S132.794,22.633,135.822,22.633L135.822,22.633z
	 M112.199,26.369v-1.808c1.533-0.045,2.985-0.5,2.985-2.445c0-1.944-1.452-2.398-2.985-2.444v-1.808h0.301
	c3.887,0,4.874,2.341,4.874,4.252c0,1.912-0.987,4.252-4.874,4.252H112.199L112.199,26.369z M119.179,33.071h1.933V27.83
	c0-2.363,1.224-3.393,2.834-3.393c1.225,0,2.32,0.708,2.32,2.62v6.015h1.932V26.52c0-2.706-1.718-3.887-3.693-3.887
	c-1.567,0-2.855,0.751-3.35,1.825h-0.043v-7.624h-1.933V33.071z M112.199,17.865v1.808c-0.093-0.002-0.187-0.004-0.28-0.004h-2.706
	v4.897h2.706c0.094,0,0.187-0.001,0.28-0.004v1.808h-2.986v6.702h-2.062V17.865H112.199L112.199,17.865z M77.02,33.331v-2.838
	c1.61,0,2.577-1.074,2.577-2.642c0-1.568-0.967-2.642-2.577-2.642v-2.835c3.221,0,5.798,2.147,5.798,5.477
	C82.818,31.181,80.241,33.331,77.02,33.331L77.02,33.331z M95.218,22.633H91.91l-2.298,6.895h-0.043l-2.685-6.895h-3.479
	l4.575,10.528l-0.236,0.601c-0.451,1.138-0.688,1.76-2.147,1.76c-0.538,0-1.01-0.106-1.504-0.321l-0.429,2.641
	c0.773,0.258,1.589,0.387,2.405,0.387c3.071,0,3.564-1.246,4.424-3.457L95.218,22.633L95.218,22.633z M104.073,23.749
	c-0.967-1.031-2.491-1.374-3.866-1.374c-2.19,0-4.381,1.074-4.381,3.521c0,3.975,5.434,2.556,5.434,4.232
	c0,0.557-0.73,0.751-1.46,0.751c-0.967,0-1.675-0.408-2.276-1.139l-1.954,2.17c1.03,1.052,2.641,1.42,4.102,1.42
	c2.233,0,4.81-0.776,4.81-3.439c0-3.973-5.433-2.663-5.433-4.209c0-0.623,0.645-0.858,1.181-0.858c0.773,0,1.396,0.3,1.869,0.88
	L104.073,23.749z M77.02,22.375v2.835l0,0c-1.611,0-2.577,1.073-2.577,2.642c0,1.567,0.966,2.642,2.577,2.642l0,0v2.838l0,0
	c-3.221,0-5.799-2.15-5.799-5.479C71.221,24.522,73.799,22.375,77.02,22.375L77.02,22.375L77.02,22.375z M63.944,33.071v-2.837h0.74
	c1.053,0,2.234-0.45,2.234-1.782c0-1.438-1.611-1.675-2.707-1.675h-0.268v-2.835h0.161c1.03,0,2.104-0.429,2.104-1.653
	c0-1.267-1.203-1.589-2.255-1.589h-0.011v-2.835h0.054c2.663,0,5.563,0.559,5.563,3.866c0,1.696-1.052,2.856-2.621,3.35v0.043
	c1.998,0.258,3.329,1.741,3.329,3.715c0,3.18-3.007,4.232-5.713,4.232H63.944z M48.936,26.648h0.751
	c1.439,0,3.007,0.043,3.007,1.761c0,1.139-0.665,1.955-2.062,1.955c-1.375,0-2.041-0.687-2.254-1.762l-3.395,0.795
	c0.624,2.729,2.75,3.934,5.456,3.934c2.985,0,5.477-1.506,5.477-4.556c0-1.761-1.031-3.308-2.856-3.544v-0.064
	c1.675-0.343,2.599-1.653,2.599-3.329c0-2.921-2.427-4.231-5.133-4.231c-2.577,0-4.746,1.009-5.412,3.651l3.544,0.73
	c0.193-0.795,0.88-1.418,1.89-1.418c1.053,0,1.89,0.666,1.89,1.59c0,1.438-1.267,1.696-2.448,1.696h-1.052V26.648L48.936,26.648z
	 M63.944,17.865V20.7h-2.266v3.243h2.266v2.835h-2.266v3.457h2.266v2.837h-5.616V17.865H63.944z"/>
<path fill-rule="evenodd" clip-rule="evenodd" fill="#AAAAAA" d="M32.975,37.97c-3.209,4.488-9.41,7.908-15.296,7.908
	c-0.049,0-0.098,0-0.147-0.001V42.44c0.049,0,0.098,0.002,0.147,0.002c5.446,0,10.391-2.215,13.982-5.787L32.975,37.97L32.975,37.97
	z M17.532,37.584c3.401,0,6.174-2.773,6.174-6.174c0-3.401-2.773-6.175-6.174-6.175V37.584z M17.532,45.877
	c-5.846-0.058-12.155-3.556-15.346-8.141l1.296-1.296c3.577,3.666,8.553,5.959,14.049,6V45.877L17.532,45.877z M17.532,25.235
	c-3.401,0-6.175,2.773-6.175,6.175c0,3.4,2.773,6.174,6.175,6.174V25.235L17.532,25.235z M7.904,25.536
	c1.062,0,1.927,0.865,1.927,1.927S8.965,29.39,7.904,29.39c-1.061,0-1.926-0.865-1.926-1.927S6.843,25.536,7.904,25.536z"/>
</svg>
